#!OML:ASF H:\Terrain\Patient Classification 1\Terrain2\Thursday\justin.ASF
:FULLY-SPECIFIED
:DEGREES
3434
root 5.68664 18.0008 10.9776 2340.26 265.013 182.593
lowerback 10.4628 -0.971275 -4.17249
upperback 3.37902 -1.74708 3.11253
thorax -2.11186 -0.946236 5.82376
lowerneck -15.4104 -2.5065 -10.9055
upperneck 36.8368 -3.85282 5.69035
head 16.0186 -2.80636 3.59202
rclavicle -1.0138e-014 1.82882e-014
rhumerus -33.8545 -12.714 -78.0026
rradius 27.7359
rwrist -9.24447
rhand -19.1652 9.81617
rfingers 7.12502
rthumb 7.14564 -20.0432
lclavicle -1.0138e-014 1.82882e-014
lhumerus -32.2321 6.32094 86.6595
lradius 30.4398
lwrist 2.59908
lhand -18.4673 22.7314
lfingers 7.12502
lthumb 7.81933 52.5668
rfemur -55.9107 -10.9881 26.5082
rtibia 76.6435
rfoot -20.5571 -2.8361
rtoes 19.3943
lfemur 9.0449 -0.998488 -19.1036
ltibia 11.2117
lfoot 1.03223 -16.3003
ltoes 18.9914
3435
root 5.59054 18.0614 10.9644 2339.44 265.138 183.461
lowerback 10.3701 -0.959011 -4.06495
upperback 3.43499 -1.72047 3.00038
thorax -2.01352 -0.936358 5.63549
lowerneck -15.4377 -2.47474 -10.6332
upperneck 36.7895 -3.81503 5.51603
head 15.9837 -2.77189 3.472
rclavicle -2.10712e-014 -3.97569e-015
rhumerus -33.6623 -12.4128 -78.323
rradius 27.7292
rwrist -9.64516
rhand -19.9922 9.54935
rfingers 7.12502
rthumb 6.34736 -20.3356
lclavicle -2.10712e-014 -3.97569e-015
lhumerus -32.2254 6.08748 86.6584
lradius 30.2747
lwrist 2.72733
lhand -18.6745 22.8151
lfingers 7.12502
lthumb 7.61933 52.6578
rfemur -55.1436 -10.6727 26.3678
rtibia 76.2053
rfoot -20.9062 -3.30186
rtoes 16.4114
lfemur 9.18357 -1.12226 -19.0435
ltibia 11.2962
lfoot 3.20307 -15.8737
ltoes 24.2192
3436
root 5.49829 18.1405 10.9553 2344.96 265.224 178.011
lowerback 10.297 -0.984398 -3.39778
upperback 3.43119 -1.68661 2.99165
thorax -2.00378 -0.91791 5.23821
lowerneck -15.3627 -2.48875 -10.4251
upperneck 36.7516 -3.937 5.56852
head 15.954 -2.78702 3.43505
rclavicle -2.08724e-014 3.61788e-014
rhumerus -33.5698 -12.37 -78.6035
rradius 27.6779
rwrist -9.73894
rhand -20.3413 9.63842
rfingers 7.12502
rthumb 6.01028 -20.2563
lclavicle -2.08724e-014 3.61788e-014
lhumerus -32.2454 6.07064 86.5706
lradius 29.9244
lwrist 2.69366
lhand -19.258 23.0909
lfingers 7.12502
lthumb 7.05607 52.9533
rfemur -54.2935 -10.2255 26.643
rtibia 75.7182
rfoot -21.448 -2.94444
rtoes 17.0559
lfemur 9.28587 -1.01504 -18.4225
ltibia 11.1936
lfoot 5.05239 -15.551
ltoes 23.8285
3437
root 5.41205 18.2045 10.9531 2345 265.149 177.992
lowerback 10.3827 -0.94854 -3.05383
upperback 3.37385 -1.60654 2.84821
thorax -2.13492 -0.870504 4.88558
lowerneck -15.1211 -2.61903 -10.3858
upperneck 36.7135 -4.26028 5.75809
head 15.9172 -2.89532 3.4527
rclavicle -1.94809e-014 1.35174e-014
rhumerus -33.666 -12.7403 -78.5601
rradius 27.6607
rwrist -9.67834
rhand -20.2474 10.2047
rfingers 7.12502
rthumb 6.10096 -19.6875
lclavicle -1.94809e-014 1.35174e-014
lhumerus -32.3652 5.93025 86.5291
lradius 29.5761
lwrist 2.45479
lhand -18.9538 22.7497
lfingers 7.12502
lthumb 7.34976 52.6021
rfemur -53.4634 -10.1238 26.4235
rtibia 75.1171
rfoot -21.6728 -2.36825
rtoes 18.9048
lfemur 9.37394 -1.28232 -18.3733
ltibia 11.1233
lfoot 6.94366 -15.0428
ltoes 22.0076
3438
root 5.32057 18.2679 10.9431 2343.86 265.12 179.095
lowerback 10.4488 -0.957299 -2.95244
upperback 3.36367 -1.60988 2.80741
thorax -2.18584 -0.870245 4.78761
lowerneck -14.9275 -2.64543 -10.6112
upperneck 36.6207 -4.2721 5.82983
head 15.8351 -2.92223 3.52024
rclavicle 2.46493e-014 -1.03368e-014
rhumerus -33.6018 -12.5854 -78.5878
rradius 27.6653
rwrist -9.90077
rhand -20.382 10.1751
rfingers 7.12502
rthumb 5.97101 -19.7208
lclavicle 2.46493e-014 -1.03368e-014
lhumerus -32.5031 6.00869 86.5624
lradius 29.339
lwrist 2.26993
lhand -18.4868 22.5192
lfingers 7.12502
lthumb 7.80054 52.3553
rfemur -52.4701 -9.72184 26.1535
rtibia 74.3469
rfoot -21.7538 -2.70236
rtoes 18.9206
lfemur 9.28392 -1.7555 -18.4233
ltibia 11.497
lfoot 8.89835 -14.4638
ltoes 22.6269
3439
root 5.22973 18.3576 10.9271 2346.72 265.158 176.316
lowerback 10.373 -1.00682 -2.73929
upperback 3.36774 -1.65135 2.95396
thorax -2.13754 -0.893503 4.82259
lowerneck -14.9686 -2.60161 -10.7703
upperneck 36.6852 -4.12408 5.74715
head 15.8638 -2.89621 3.54014
rclavicle 1.55052e-014 2.38542e-015
rhumerus -33.3599 -12.4355 -78.6157
rradius 27.66
rwrist -9.79019
rhand -21.3502 10.0664
rfingers 7.12502
rthumb 5.03621 -19.8538
lclavicle 1.55052e-014 2.38542e-015
lhumerus -32.4408 6.51929 86.4897
lradius 28.8195
lwrist 1.15487
lhand -18.068 22.196
lfingers 7.12502
lthumb 8.20473 52.0167
rfemur -51.5029 -8.92687 26.2552
rtibia 73.4736
rfoot -21.921 -3.32849
rtoes 18.731
lfemur 8.87632 -1.86817 -18.0335
ltibia 12.1437
lfoot 10.2987 -14.6774
ltoes 18.4262
3440
root 5.14063 18.4391 10.92 2347.93 265.118 175.354
lowerback 10.1087 -0.992041 -2.52362
upperback 3.3096 -1.60246 2.95064
thorax -2.06447 -0.867551 4.68284
lowerneck -14.8614 -2.63047 -10.5858
upperneck 36.7598 -4.24323 5.70402
head 15.8819 -2.93263 3.46901
rclavicle -1.23246e-014 1.43125e-014
rhumerus -33.2366 -12.4506 -78.6488
rradius 27.7125
rwrist -9.56825
rhand -22.3893 10.2084
rfingers 7.12502
rthumb 4.03288 -19.7332
lclavicle -1.23246e-014 1.43125e-014
lhumerus -32.3591 6.79089 86.3503
lradius 28.2028
lwrist -0.118195
lhand -17.8516 21.5756
lfingers 7.12502
lthumb 8.41356 51.388
rfemur -50.8791 -8.84544 26.3628
rtibia 72.5509
rfoot -21.8972 -3.38866
rtoes 18.5488
lfemur 8.23433 -1.75246 -17.7471
ltibia 12.7776
lfoot 11.9527 -14.9198
ltoes 13.8478
3441
root 5.05097 18.5204 10.914 2351.2 264.948 172.234
lowerback 9.92441 -1.06096 -2.02352
upperback 3.26235 -1.64103 2.98035
thorax -2.02268 -0.885299 4.42847
lowerneck -14.6763 -2.61722 -10.4631
upperneck 36.757 -4.27831 5.65948
head 15.8338 -2.9412 3.42143
rclavicle 5.56597e-015 -1.66979e-014
rhumerus -33.1506 -11.7429 -78.9524
rradius 27.8718
rwrist -10.0226
rhand -22.3596 10.3138
rfingers 7.12502
rthumb 4.06149 -19.6272
lclavicle 5.56597e-015 -1.66979e-014
lhumerus -32.4306 6.2143 86.6365
lradius 28.0193
lwrist 0.822793
lhand -18.2908 21.8107
lfingers 7.12502
lthumb 7.98969 51.6397
rfemur -50.1006 -9.00935 26.7174
rtibia 71.5131
rfoot -21.7938 -3.46313
rtoes 18.1708
lfemur 7.62601 -2.08496 -17.2809
ltibia 13.4596
lfoot 14.1832 -13.9536
ltoes 14.9762
3442
root 4.96471 18.619 10.8988 2356.57 264.69 166.853
lowerback 9.9371 -1.2221 -1.44374
upperback 3.25655 -1.79959 3.14669
thorax -2.03428 -0.965665 4.29161
lowerneck -14.6421 -2.52332 -10.2589
upperneck 36.8041 -4.09109 5.33681
head 15.8126 -2.88169 3.27737
rclavicle -1.64991e-014 2.62396e-014
rhumerus -33.0107 -11.034 -79.2305
rradius 28.0822
rwrist -10.1853
rhand -21.8932 10.509
rfingers 7.12502
rthumb 4.51195 -19.423
lclavicle -1.64991e-014 2.62396e-014
lhumerus -32.4631 5.96595 86.8729
lradius 27.8793
lwrist 1.83177
lhand -18.3251 22.0368
lfingers 7.12502
lthumb 7.9566 51.867
rfemur -49.0408 -8.80174 27.245
rtibia 70.4265
rfoot -21.7968 -3.69389
rtoes 18.7993
lfemur 6.9754 -2.66854 -16.6019
ltibia 14.4038
lfoot 15.9436 -12.8341
ltoes 14.2583
3443
root 4.87897 18.7065 10.8875 2357.58 264.515 165.932
lowerback 9.84066 -1.28935 -1.25566
upperback 3.24628 -1.87004 3.20612
thorax -1.99012 -1.00151 4.25159
lowerneck -14.6457 -2.5121 -9.91618
upperneck 36.7894 -4.0335 4.95372
head 15.7797 -2.85931 3.05848
rclavicle 1.66979e-014 -1.59028e-014
rhumerus -32.882 -10.9017 -79.242
rradius 28.2694
rwrist -9.75916
rhand -21.8039 10.8569
rfingers 7.12502
rthumb 4.59817 -19.0732
lclavicle 1.66979e-014 -1.59028e-014
lhumerus -32.4225 6.0712 86.9484
lradius 27.6286
lwrist 1.44777
lhand -18.1758 21.9834
lfingers 7.12502
lthumb 8.10069 51.8081
rfemur -48.1454 -8.6892 27.3648
rtibia 69.2858
rfoot -21.6467 -4.02397
rtoes 18.1701
lfemur 6.42807 -3.11816 -16.3703
ltibia 14.9279
lfoot 17.8919 -11.5979
ltoes 12.5418
